<?xml version="1.0" encoding="utf-8"?>
<!-- Generator: Adobe Illustrator 18.1.1, SVG Export Plug-In . SVG Version: 6.00 Build 0)  -->
<svg id="boulder-svg" version="1.1" id="Layer_1" xmlns="http://www.w3.org/2000/svg" xmlns:xlink="http://www.w3.org/1999/xlink" viewBox="0 0 673.7 319.8" enable-background="new 0 0 673.7 319.8" xml:space="preserve">

<g>
	<g>
		<path id="boulder-svg-line-3" style="fill:none;stroke:#fafafa;stroke-miterlimit:10;stroke-width:1.25730025574329px" d="M664.1,297.4c-74.1,0-131.2-13.8-186.6-27.1c-42.3-10.2-82.3-19.8-127.7-23c-0.5,0-0.9-0.5-0.9-1
			c0-0.5,0.5-0.9,1-0.9c45.6,3.2,85.7,12.9,128.1,23.1c55.2,13.3,112.3,27.1,186.1,27.1c0.5,0,1,0.4,1,1S664.7,297.4,664.1,297.4z"
			/>
	</g>
	<g>
		<path id="boulder-svg-line-4" style="background-color:fill:none;stroke:#fafafa;stroke-miterlimit:10;stroke-width:1.25730025574329px" d="M333.3,222.8c-0.2,0-0.4-0.1-0.5-0.2c-0.5-0.3-0.6-0.9-0.3-1.4l4.2-6.4c0.1-0.1,0.2-0.2,0.3-0.3l36.6-20.6
			l29.8-36.7c0.1-0.1,0.2-0.2,0.3-0.2l9.7-5.2c0.2-0.1,0.5-0.2,0.8-0.1c0.3,0.1,0.5,0.3,0.6,0.5l26.9,53.3c0.2,0.5,0.1,1.1-0.4,1.3
			c-0.5,0.2-1.1,0.1-1.3-0.4L413.4,154l-8.7,4.7L375,195.4c-0.1,0.1-0.2,0.2-0.3,0.2l-36.5,20.6l-4,6.2
			C333.9,222.7,333.6,222.8,333.3,222.8z"/>
	</g>
	<g>
		<path id="boulder-svg-line-5" style="fill:none;stroke:#fafafa;stroke-miterlimit:10;stroke-width:1.25730025574329px" d="M276.4,225.3c-0.3,0-0.6-0.2-0.8-0.5c-0.3-0.5-0.2-1.1,0.3-1.4l17.9-11.3l2.8-9.2c0.1-0.2,0.2-0.4,0.4-0.5
			l39.9-29.6c0.2-0.2,0.5-0.2,0.7-0.2l7.7,1.2l13.1-10c0.2-0.2,0.5-0.2,0.8-0.2l5.2,1c0.5,0.1,0.8,0.5,0.8,1.1l-2.3,26.2
			c0,0.5-0.5,0.9-1.1,0.9c-0.5,0-0.9-0.5-0.9-1.1l2.2-25.3l-3.9-0.7l-13.1,10c-0.2,0.2-0.5,0.2-0.8,0.2l-7.7-1.2l-39.3,29.2
			l-2.9,9.3c-0.1,0.2-0.2,0.4-0.4,0.5l-18.2,11.5C276.7,225.2,276.5,225.3,276.4,225.3z"/>
	</g>
	<g>
		<path id="boulder-svg-line-6" style="fill:none;stroke:#fafafa;stroke-miterlimit:10;stroke-width:1.25730025574329px" d="M96.1,283.7c-0.3,0-0.6-0.1-0.8-0.4c-0.3-0.4-0.3-1,0.1-1.4c0.2-0.2,24.1-19.4,62.7-21.2
			c38.5-1.7,68.9,11.1,69.2,11.2c0.5,0.2,0.7,0.8,0.5,1.3c-0.2,0.5-0.8,0.7-1.3,0.5c-0.3-0.1-30.3-12.8-68.4-11.1
			c-37.9,1.7-61.3,20.5-61.5,20.7C96.6,283.6,96.3,283.7,96.1,283.7z"/>
	</g>
	<g>
		<path id="boulder-svg-line-7" style="fill:none;stroke:#fafafa;stroke-miterlimit:10;stroke-width:1.25730025574329px" d="M218.3,240c-0.2,0-0.5-0.1-0.7-0.3c-0.4-0.4-0.4-1,0-1.4l61.6-62.5l2.1-4.5c0.1-0.2,0.2-0.3,0.4-0.4
			l21.4-12.1c0.3-0.2,0.6-0.2,0.9,0c0.3,0.1,0.5,0.4,0.6,0.7l1.3,6.9c0,0.1,0,0.2,0,0.4l-1.8,10.6l5.4,16.5c0.2,0.5-0.1,1.1-0.6,1.2
			c-0.5,0.2-1.1-0.1-1.2-0.6l-5.5-16.8c0-0.2-0.1-0.3,0-0.5l1.9-10.7l-1-5.4l-20,11.3l-2.1,4.4c0,0.1-0.1,0.2-0.2,0.3L219,239.7
			C218.8,239.9,218.5,240,218.3,240z"/>
	</g>
	<g>
		<path id="boulder-svg-line-8" style="fill:none;stroke:#fafafa;stroke-miterlimit:10;stroke-width:1.25730025574329px" d="M465.3,253.8c-0.4,0-0.7-0.2-0.9-0.5l-21.8-40.7c-0.3-0.5-0.1-1.1,0.4-1.3c0.5-0.3,1.1-0.1,1.3,0.4
			l21.8,40.7c0.3,0.5,0.1,1.1-0.4,1.3C465.6,253.7,465.5,253.8,465.3,253.8z"/>
	</g>
	<g>
		<path id="boulder-svg-line-9" style="fill:none;stroke:#fafafa;stroke-miterlimit:10;stroke-width:1.25730025574329px" d="M503.6,229.9c-0.2,0-0.4-0.1-0.6-0.2l-85.2-67.7c-0.4-0.3-0.5-1-0.2-1.4c0.3-0.4,1-0.5,1.4-0.2l85.2,67.7
			c0.4,0.3,0.5,1,0.2,1.4C504.2,229.8,503.9,229.9,503.6,229.9z"/>
	</g>
	<g>
		<path id="boulder-svg-line-10" style="fill:none;stroke:#fafafa;stroke-miterlimit:10;stroke-width:1.25730025574329px" d="M652.5,230.5c-0.1,0-0.2,0-0.3-0.1l-156.7-51.9L459.2,194c-0.5,0.2-1.1,0-1.3-0.5c-0.2-0.5,0-1.1,0.5-1.3
			l36.6-15.5c0.2-0.1,0.5-0.1,0.7,0l157.1,52c0.5,0.2,0.8,0.7,0.6,1.2C653.3,230.3,652.9,230.5,652.5,230.5z"/>
	</g>
	<g>
		<g>
			<path id="boulder-svg-line-11" style="fill:none;stroke:#fafafa;stroke-miterlimit:10;stroke-width:1.25730025574329px" d="M380.4,205c-0.2,0-0.4-0.1-0.6-0.2c-0.4-0.3-0.5-1-0.2-1.4c0.3-0.3,6.2-7.8,7.2-9.1
				c0.3-0.4,1-0.5,1.4-0.1c0.4,0.3,0.5,1,0.1,1.4c-1,1.2-7.1,9-7.2,9C381,204.9,380.7,205,380.4,205z"/>
		</g>
		<g>
			<path id="boulder-svg-line-12" style="fill:none;stroke:#fafafa;stroke-miterlimit:10;stroke-width:1.25730025574329px" d="M391,191.8c-0.2,0-0.4-0.1-0.6-0.2c-0.4-0.3-0.5-1-0.1-1.4l2.1-2.6c0.3-0.4,1-0.5,1.4-0.1s0.5,1,0.1,1.4
				l-2.1,2.6C391.6,191.7,391.3,191.8,391,191.8z"/>
		</g>
		<g>
			<path id="boulder-svg-line-13" style="fill:none;stroke:#fafafa;stroke-miterlimit:10;stroke-width:1.25730025574329px" d="M395.7,186.1c-0.2,0-0.4-0.1-0.6-0.2c-0.4-0.3-0.5-1-0.1-1.4l0.3-0.4c6.9-8.4,14-17.1,20.8-25.8
				c0.3-0.4,1-0.5,1.4-0.2c0.4,0.3,0.5,1,0.2,1.4c-6.8,8.7-14,17.4-20.9,25.8l-0.3,0.4C396.3,185.9,396,186.1,395.7,186.1z"/>
		</g>
	</g>
	<g>
		<g>
			<path id="boulder-svg-line-14" style="fill:none;stroke:#fafafa;stroke-miterlimit:10;stroke-width:1.25730025574329px" d="M394.8,198.5c-0.2,0-0.4-0.1-0.6-0.2c-0.4-0.3-0.5-1-0.1-1.4l2.8-3.5c0.3-0.4,1-0.5,1.4-0.1
				c0.4,0.3,0.5,1,0.1,1.4l-2.8,3.5C395.3,198.3,395.1,198.5,394.8,198.5z"/>
		</g>
		<g>
			<path id="boulder-svg-line-15" style="fill:none;stroke:#fafafa;stroke-miterlimit:10;stroke-width:1.25730025574329px" d="M401.5,190.2c-0.2,0-0.4-0.1-0.6-0.2c-0.4-0.3-0.5-1-0.1-1.4l18.7-23c0.3-0.4,1-0.5,1.4-0.1
				c0.4,0.3,0.5,1,0.1,1.4l-18.7,23C402,190.1,401.7,190.2,401.5,190.2z"/>
		</g>
	</g>
	<g>
		<g>
			<path id="boulder-svg-line-16" style="fill:none;stroke:#fafafa;stroke-miterlimit:10;stroke-width:1.25730025574329px" d="M407.9,194.9c-0.2,0-0.4-0.1-0.6-0.2c-0.4-0.3-0.5-1-0.1-1.4l4-5c0.3-0.4,1-0.5,1.4-0.1
				c0.4,0.3,0.5,1,0.1,1.4l-4,5C408.5,194.7,408.2,194.9,407.9,194.9z"/>
		</g>
		<g>
			<path id="boulder-svg-line-17" style="fill:none;stroke:#fafafa;stroke-miterlimit:10;stroke-width:1.25730025574329px" d="M415.4,185.6c-0.2,0-0.4-0.1-0.6-0.2c-0.4-0.3-0.5-1-0.1-1.4l9-11.1c0.3-0.4,1-0.5,1.4-0.1
				c0.4,0.3,0.5,1,0.1,1.4l-9,11.1C416,185.5,415.7,185.6,415.4,185.6z"/>
		</g>
	</g>
	<g>
		<g>
			<path id="boulder-svg-line-18" style="fill:none;stroke:#fafafa;stroke-miterlimit:10;stroke-width:1.25730025574329px" d="M405.5,209.8c-0.2,0-0.4-0.1-0.6-0.2c-0.4-0.3-0.5-1-0.2-1.4l3.4-4.4c1.5-1.9,2.6-3.3,3-3.8
				c0.3-0.4,1-0.5,1.4-0.1c0.4,0.3,0.5,1,0.1,1.4c-0.4,0.5-1.5,1.9-3,3.8l-3.4,4.4C406.1,209.7,405.8,209.8,405.5,209.8z"/>
		</g>
		<g>
			<path id="boulder-svg-line-19" style="fill:none;stroke:#fafafa;stroke-miterlimit:10;stroke-width:1.25730025574329px" d="M415.7,196.8c-0.2,0-0.4-0.1-0.6-0.2c-0.4-0.3-0.5-0.9-0.2-1.4c0.6-0.8,1.3-1.7,1.9-2.5
				c3.2-4.2,6.4-8.5,10-12.5c0.4-0.4,1-0.4,1.4-0.1s0.4,1,0.1,1.4c-3.6,3.9-6.8,8.2-9.9,12.3c-0.6,0.8-1.3,1.7-1.9,2.5
				C416.3,196.7,416,196.8,415.7,196.8z"/>
		</g>
	</g>
	<g>
		<path id="boulder-svg-line-20" style="fill:none;stroke:#fafafa;stroke-miterlimit:10;stroke-width:1.25730025574329px" d="M251.7,194.1c-0.2,0-0.4-0.1-0.6-0.2c-0.4-0.3-0.5-1-0.1-1.4l13.2-16.1c0.3-0.4,1-0.5,1.4-0.1
			c0.4,0.3,0.5,1,0.1,1.4l-13.2,16.1C252.2,193.9,251.9,194.1,251.7,194.1z"/>
	</g>
	<g>
		<path id="boulder-svg-line-21" style="fill:none;stroke:#fafafa;stroke-miterlimit:10;stroke-width:1.25730025574329px" d="M59.9,279.6c-0.4,0-0.7-0.2-0.9-0.6c-0.2-0.5,0-1.1,0.5-1.3l66.4-31.1l72.9-40.6l48.9-27l6.3-6.9
			c0.1-0.1,0.1-0.1,0.2-0.2l9.6-5.9c0.3-0.2,0.6-0.2,1,0c0.3,0.2,0.5,0.4,0.5,0.8l1,10.6l2.4,10.6c0.1,0.5-0.2,1.1-0.7,1.2
			c-0.5,0.1-1.1-0.2-1.2-0.7l-2.4-10.6c0,0,0-0.1,0-0.1l-0.8-9.1l-8.1,5l-6.3,6.9c-0.1,0.1-0.2,0.1-0.3,0.2l-49.1,27.1l-73,40.7
			l-66.5,31.1C60.2,279.6,60,279.6,59.9,279.6z"/>
	</g>
	<g>
		<path id="boulder-svg-line-22" style="fill:none;stroke:#fafafa;stroke-miterlimit:10;stroke-width:1.25730025574329px" d="M257.3,178.1c-0.2,0-0.5-0.1-0.7-0.2c-0.4-0.4-0.4-1-0.1-1.4l7-7.9c0.4-0.4,1-0.4,1.4-0.1
			c0.4,0.4,0.4,1,0.1,1.4l-7,7.9C257.8,177.9,257.5,178.1,257.3,178.1z"/>
	</g>
	<g>
		<path id="boulder-svg-line-23" style="fill:none;stroke:#fafafa;stroke-miterlimit:10;stroke-width:1.25730025574329px" d="M218.9,217.9c-0.2,0-0.5-0.1-0.7-0.3c-0.4-0.4-0.4-1,0-1.4l36.1-36.8c0.4-0.4,1-0.4,1.4,0
			c0.4,0.4,0.4,1,0,1.4l-36.1,36.8C219.4,217.8,219.2,217.9,218.9,217.9z"/>
	</g>
	<g>
		<path id="boulder-svg-line-24" style="fill:none;stroke:#fafafa;stroke-miterlimit:10;stroke-width:1.25730025574329px" d="M316.4,176C316.4,176,316.4,176,316.4,176l-12.2-0.7c-0.5,0-1-0.5-0.9-1.1s0.5-1,1-0.9l11.7,0.6l14.8-11.2
			c0.3-0.2,0.7-0.3,1-0.1l18.3,7.9c0.5,0.2,0.7,0.8,0.5,1.3s-0.8,0.7-1.3,0.5l-17.8-7.6L317,175.7C316.9,175.9,316.7,176,316.4,176z
			"/>
	</g>
</g>
</svg>
