<?xml version="1.0" encoding="utf-8"?>
<!-- Generator: Adobe Illustrator 18.1.1, SVG Export Plug-In . SVG Version: 6.00 Build 0)  -->
<svg version="1.1" id="Layer_1" xmlns="http://www.w3.org/2000/svg" xmlns:xlink="http://www.w3.org/1999/xlink" x="0px" y="0px"
	 viewBox="0 0 673.7 319.8" enable-background="new 0 0 673.7 319.8" xml:space="preserve">
<g>
	<g>
		<defs>
			<circle id="SVGID_12_" cx="-212.3" cy="526.9" r="137"/>
		</defs>
		<clipPath id="SVGID_1_">
			<use xlink:href="#SVGID_12_"  overflow="visible"/>
		</clipPath>
		<g clip-path="url(#SVGID_1_)">
			<g opacity="0.5">
			</g>
		</g>
	</g>
</g>
<g>
	<g>
		<defs>
			<circle id="SVGID_14_" cx="109.7" cy="526.5" r="137"/>
		</defs>
		<clipPath id="SVGID_2_">
			<use xlink:href="#SVGID_14_"  overflow="visible"/>
		</clipPath>
		<g clip-path="url(#SVGID_2_)">
			<g opacity="0.5">
				<g>
					<g>
						<g>
							<path fill="#F3CCD7" d="M2.5,320.5c0-6.9-6-13.3-13.3-13.3c-3.5,0-9.6,2.9-9.5,4.6l3.6-0.4c4.4,0,8.7,2.7,11.1,6.4
								c0.7,1.1,0.5,2.1,0.9,2.5C-2.6,320.4,2.5,320.5,2.5,320.5z"/>
						</g>
					</g>
					<g>
						<g>
							<g>
								<path fill="#EF8CA4" d="M2.3,321h-60.9c-0.6,0-1-0.4-1-1c0-11.7,9.8-21.6,21.5-21.6c7.5,0,14.4,3.8,18.2,10
									c2.5-1.9,5.6-3,8.9-3c7.7,0,14.4,6.8,14.4,14.5C3.3,320.6,2.8,321,2.3,321z M-57.6,319H1.2c-0.5-6.3-6.1-11.5-12.3-11.5
									c-3.2,0-6.2,1.2-8.4,3.3c-0.2,0.2-0.5,0.3-0.8,0.3c-0.3,0-0.6-0.2-0.7-0.5c-3.4-6.2-9.9-10-17.1-10
									C-48.4,300.4-57.1,308.8-57.6,319z"/>
							</g>
						</g>
					</g>
				</g>
			</g>
		</g>
	</g>
</g>
<g>
	<g>
		<polygon fill="#F3CCD7" points="486.1,196.4 494.8,178.2 459.9,193.4 501.3,227.3 		"/>
	</g>
	<g>
		<polygon fill="#F3CCD7" points="305.5,167.5 298.6,173.8 287,185.1 270.8,202.4 286,200.1 294.2,191.9 306.6,189 302.9,177 		"/>
	</g>
	<g>
		<polygon fill="#F3CCD7" points="263.9,177.2 252.3,193.9 244.5,202.5 244.2,211.8 267.5,188.2 265.1,177 		"/>
	</g>
	<g>
		<polygon fill="#F3CCD7" points="362.7,176.1 368.7,174.1 378.5,176.4 391.4,173.1 385,181.6 361.9,191.8 		"/>
	</g>
	<g>
		<path fill="#EF8CA4" d="M664.1,297.4c-74.1,0-131.2-13.8-186.6-27.1c-42.3-10.2-82.3-19.8-127.7-23c-0.5,0-0.9-0.5-0.9-1
			c0-0.5,0.5-0.9,1-0.9c45.6,3.2,85.7,12.9,128.1,23.1c55.2,13.3,112.3,27.1,186.1,27.1c0.5,0,1,0.4,1,1S664.7,297.4,664.1,297.4z"
			/>
	</g>
	<g>
		<polygon fill="#F3CCD7" points="441,179.2 419.5,162.5 424,171.9 446.9,219.7 450.1,208.6 		"/>
	</g>
	<g>
		<path fill="#EF8CA4" d="M333.3,222.8c-0.2,0-0.4-0.1-0.5-0.2c-0.5-0.3-0.6-0.9-0.3-1.4l4.2-6.4c0.1-0.1,0.2-0.2,0.3-0.3l36.6-20.6
			l29.8-36.7c0.1-0.1,0.2-0.2,0.3-0.2l9.7-5.2c0.2-0.1,0.5-0.2,0.8-0.1c0.3,0.1,0.5,0.3,0.6,0.5l26.9,53.3c0.2,0.5,0.1,1.1-0.4,1.3
			c-0.5,0.2-1.1,0.1-1.3-0.4L413.4,154l-8.7,4.7L375,195.4c-0.1,0.1-0.2,0.2-0.3,0.2l-36.5,20.6l-4,6.2
			C333.9,222.7,333.6,222.8,333.3,222.8z"/>
	</g>
	<g>
		<path fill="#EF8CA4" d="M276.4,225.3c-0.3,0-0.6-0.2-0.8-0.5c-0.3-0.5-0.2-1.1,0.3-1.4l17.9-11.3l2.8-9.2c0.1-0.2,0.2-0.4,0.4-0.5
			l39.9-29.6c0.2-0.2,0.5-0.2,0.7-0.2l7.7,1.2l13.1-10c0.2-0.2,0.5-0.2,0.8-0.2l5.2,1c0.5,0.1,0.8,0.5,0.8,1.1l-2.3,26.2
			c0,0.5-0.5,0.9-1.1,0.9c-0.5,0-0.9-0.5-0.9-1.1l2.2-25.3l-3.9-0.7l-13.1,10c-0.2,0.2-0.5,0.2-0.8,0.2l-7.7-1.2l-39.3,29.2
			l-2.9,9.3c-0.1,0.2-0.2,0.4-0.4,0.5l-18.2,11.5C276.7,225.2,276.5,225.3,276.4,225.3z"/>
	</g>
	<g>
		<path fill="#EF8CA4" d="M96.1,283.7c-0.3,0-0.6-0.1-0.8-0.4c-0.3-0.4-0.3-1,0.1-1.4c0.2-0.2,24.1-19.4,62.7-21.2
			c38.5-1.7,68.9,11.1,69.2,11.2c0.5,0.2,0.7,0.8,0.5,1.3c-0.2,0.5-0.8,0.7-1.3,0.5c-0.3-0.1-30.3-12.8-68.4-11.1
			c-37.9,1.7-61.3,20.5-61.5,20.7C96.6,283.6,96.3,283.7,96.1,283.7z"/>
	</g>
	<g>
		<path fill="#EF8CA4" d="M218.3,240c-0.2,0-0.5-0.1-0.7-0.3c-0.4-0.4-0.4-1,0-1.4l61.6-62.5l2.1-4.5c0.1-0.2,0.2-0.3,0.4-0.4
			l21.4-12.1c0.3-0.2,0.6-0.2,0.9,0c0.3,0.1,0.5,0.4,0.6,0.7l1.3,6.9c0,0.1,0,0.2,0,0.4l-1.8,10.6l5.4,16.5c0.2,0.5-0.1,1.1-0.6,1.2
			c-0.5,0.2-1.1-0.1-1.2-0.6l-5.5-16.8c0-0.2-0.1-0.3,0-0.5l1.9-10.7l-1-5.4l-20,11.3l-2.1,4.4c0,0.1-0.1,0.2-0.2,0.3L219,239.7
			C218.8,239.9,218.5,240,218.3,240z"/>
	</g>
	<g>
		<g>
			<path fill="#ED737E" d="M467.7,97c-0.6,0-1-0.4-1-1V84c0-0.6,0.4-1,1-1s1,0.4,1,1v12C468.7,96.6,468.2,97,467.7,97z"/>
		</g>
		<g>
			<path fill="#ED737E" d="M473.9,91h-12c-0.6,0-1-0.4-1-1s0.4-1,1-1h12c0.6,0,1,0.4,1,1S474.5,91,473.9,91z"/>
		</g>
		<g>
			<path fill="#ED737E" d="M464.1,95c-0.3,0-0.5-0.1-0.7-0.3c-0.4-0.4-0.4-1,0-1.4l8.3-8.3c0.4-0.4,1-0.4,1.4,0c0.4,0.4,0.4,1,0,1.4
				l-8.3,8.3C464.6,94.9,464.4,95,464.1,95z"/>
		</g>
		<g>
			<path fill="#ED737E" d="M472.4,95c-0.3,0-0.5-0.1-0.7-0.3l-8.3-8.3c-0.4-0.4-0.4-1,0-1.4c0.4-0.4,1-0.4,1.4,0l8.3,8.3
				c0.4,0.4,0.4,1,0,1.4C472.9,94.9,472.7,95,472.4,95z"/>
		</g>
	</g>
	<g>
		<g>
			<path fill="#ED737E" d="M146.7,190c-0.6,0-1-0.4-1-1v-12c0-0.6,0.4-1,1-1s1,0.4,1,1v12C147.7,189.6,147.2,190,146.7,190z"/>
		</g>
		<g>
			<path fill="#ED737E" d="M152.9,184h-12c-0.6,0-1-0.4-1-1s0.4-1,1-1h12c0.6,0,1,0.4,1,1S153.5,184,152.9,184z"/>
		</g>
		<g>
			<path fill="#ED737E" d="M143.1,188.2c-0.3,0-0.5-0.1-0.7-0.3c-0.4-0.4-0.4-1,0-1.4l8.3-8.3c0.4-0.4,1-0.4,1.4,0
				c0.4,0.4,0.4,1,0,1.4l-8.3,8.3C143.6,188.1,143.4,188.2,143.1,188.2z"/>
		</g>
		<g>
			<path fill="#ED737E" d="M151.4,188.2c-0.3,0-0.5-0.1-0.7-0.3l-8.3-8.3c-0.4-0.4-0.4-1,0-1.4c0.4-0.4,1-0.4,1.4,0l8.3,8.3
				c0.4,0.4,0.4,1,0,1.4C151.9,188.1,151.7,188.2,151.4,188.2z"/>
		</g>
	</g>
	<g>
		<g>
			<path fill="#ED737E" d="M574.7,163c-0.6,0-1-0.4-1-1v-12c0-0.6,0.4-1,1-1s1,0.4,1,1v12C575.7,162.6,575.2,163,574.7,163z"/>
		</g>
		<g>
			<path fill="#ED737E" d="M580.9,157h-12c-0.6,0-1-0.4-1-1s0.4-1,1-1h12c0.6,0,1,0.4,1,1S581.5,157,580.9,157z"/>
		</g>
		<g>
			<path fill="#ED737E" d="M571.1,160.7c-0.3,0-0.5-0.1-0.7-0.3c-0.4-0.4-0.4-1,0-1.4l8.3-8.3c0.4-0.4,1-0.4,1.4,0
				c0.4,0.4,0.4,1,0,1.4l-8.3,8.3C571.6,160.7,571.4,160.7,571.1,160.7z"/>
		</g>
		<g>
			<path fill="#ED737E" d="M579.4,160.7c-0.3,0-0.5-0.1-0.7-0.3l-8.3-8.3c-0.4-0.4-0.4-1,0-1.4c0.4-0.4,1-0.4,1.4,0l8.3,8.3
				c0.4,0.4,0.4,1,0,1.4C579.9,160.7,579.7,160.7,579.4,160.7z"/>
		</g>
	</g>
	<g>
		<g>
			<path fill="#ED737E" d="M212.7,95c-0.6,0-1-0.4-1-1V79c0-0.6,0.4-1,1-1s1,0.4,1,1v15C213.7,94.6,213.2,95,212.7,95z"/>
		</g>
		<g>
			<path fill="#ED737E" d="M220.9,87h-15c-0.6,0-1-0.4-1-1s0.4-1,1-1h15c0.6,0,1,0.4,1,1S221.5,87,220.9,87z"/>
		</g>
		<g>
			<path fill="#ED737E" d="M208.1,92.5c-0.3,0-0.5-0.1-0.7-0.3c-0.4-0.4-0.4-1,0-1.4L218,80.3c0.4-0.4,1-0.4,1.4,0
				c0.4,0.4,0.4,1,0,1.4l-10.6,10.6C208.6,92.4,208.4,92.5,208.1,92.5z"/>
		</g>
		<g>
			<path fill="#ED737E" d="M218.7,92.5c-0.3,0-0.5-0.1-0.7-0.3l-10.6-10.6c-0.4-0.4-0.4-1,0-1.4c0.4-0.4,1-0.4,1.4,0l10.6,10.6
				c0.4,0.4,0.4,1,0,1.4C219.2,92.4,219,92.5,218.7,92.5z"/>
		</g>
	</g>
	<g>
		<g>
			<path fill="#ED737E" d="M303.7,119c-0.6,0-1-0.4-1-1v-14c0-0.6,0.4-1,1-1s1,0.4,1,1v14C304.7,118.6,304.2,119,303.7,119z"/>
		</g>
		<g>
			<path fill="#ED737E" d="M311.9,112h-14c-0.6,0-1-0.4-1-1s0.4-1,1-1h14c0.6,0,1,0.4,1,1S312.5,112,311.9,112z"/>
		</g>
		<g>
			<path fill="#ED737E" d="M299.4,117.1c-0.3,0-0.5-0.1-0.7-0.3c-0.4-0.4-0.4-1,0-1.4l10.6-10.6c0.4-0.4,1-0.4,1.4,0
				c0.4,0.4,0.4,1,0,1.4l-10.6,10.6C299.9,117,299.7,117.1,299.4,117.1z"/>
		</g>
		<g>
			<path fill="#ED737E" d="M310,117.1c-0.3,0-0.5-0.1-0.7-0.3l-10.6-10.6c-0.4-0.4-0.4-1,0-1.4c0.4-0.4,1-0.4,1.4,0l10.6,10.6
				c0.4,0.4,0.4,1,0,1.4C310.5,117,310.2,117.1,310,117.1z"/>
		</g>
	</g>
	<g>
		<g>
			<path fill="#ED737E" d="M84.7,116c-0.6,0-1-0.4-1-1v-15c0-0.6,0.4-1,1-1s1,0.4,1,1v15C85.7,115.6,85.2,116,84.7,116z"/>
		</g>
		<g>
			<path fill="#ED737E" d="M91.9,108h-14c-0.6,0-1-0.4-1-1s0.4-1,1-1h14c0.6,0,1,0.4,1,1S92.5,108,91.9,108z"/>
		</g>
		<g>
			<path fill="#ED737E" d="M79.5,113.2c-0.3,0-0.5-0.1-0.7-0.3c-0.4-0.4-0.4-1,0-1.4l10.6-10.6c0.4-0.4,1-0.4,1.4,0
				c0.4,0.4,0.4,1,0,1.4l-10.6,10.6C80,113.1,79.8,113.2,79.5,113.2z"/>
		</g>
		<g>
			<path fill="#ED737E" d="M90.1,113.2c-0.3,0-0.5-0.1-0.7-0.3l-10.6-10.6c-0.4-0.4-0.4-1,0-1.4c0.4-0.4,1-0.4,1.4,0l10.6,10.6
				c0.4,0.4,0.4,1,0,1.4C90.6,113.1,90.4,113.2,90.1,113.2z"/>
		</g>
	</g>
	<g>
		<g>
			<path fill="#ED737E" d="M545.7,14c-0.6,0-1-0.4-1-1V6c0-0.6,0.4-1,1-1s1,0.4,1,1v7C546.7,13.6,546.2,14,545.7,14z"/>
		</g>
		<g>
			<path fill="#ED737E" d="M549.9,11h-8c-0.6,0-1-0.4-1-1s0.4-1,1-1h8c0.6,0,1,0.4,1,1S550.5,11,549.9,11z"/>
		</g>
		<g>
			<path fill="#ED737E" d="M543.1,13.1c-0.3,0-0.5-0.1-0.7-0.3c-0.4-0.4-0.4-1,0-1.4l5.5-5.5c0.4-0.4,1-0.4,1.4,0
				c0.4,0.4,0.4,1,0,1.4l-5.5,5.5C543.6,13,543.3,13.1,543.1,13.1z"/>
		</g>
		<g>
			<path fill="#ED737E" d="M548.6,13.1c-0.3,0-0.5-0.1-0.7-0.3l-5.5-5.5c-0.4-0.4-0.4-1,0-1.4c0.4-0.4,1-0.4,1.4,0l5.5,5.5
				c0.4,0.4,0.4,1,0,1.4C549.1,13,548.8,13.1,548.6,13.1z"/>
		</g>
	</g>
	<g>
		<path fill="#EF8CA4" d="M465.3,253.8c-0.4,0-0.7-0.2-0.9-0.5l-21.8-40.7c-0.3-0.5-0.1-1.1,0.4-1.3c0.5-0.3,1.1-0.1,1.3,0.4
			l21.8,40.7c0.3,0.5,0.1,1.1-0.4,1.3C465.6,253.7,465.5,253.8,465.3,253.8z"/>
	</g>
	<g>
		<path fill="#EF8CA4" d="M503.6,229.9c-0.2,0-0.4-0.1-0.6-0.2l-85.2-67.7c-0.4-0.3-0.5-1-0.2-1.4c0.3-0.4,1-0.5,1.4-0.2l85.2,67.7
			c0.4,0.3,0.5,1,0.2,1.4C504.2,229.8,503.9,229.9,503.6,229.9z"/>
	</g>
	<g>
		<path fill="#EF8CA4" d="M652.5,230.5c-0.1,0-0.2,0-0.3-0.1l-156.7-51.9L459.2,194c-0.5,0.2-1.1,0-1.3-0.5c-0.2-0.5,0-1.1,0.5-1.3
			l36.6-15.5c0.2-0.1,0.5-0.1,0.7,0l157.1,52c0.5,0.2,0.8,0.7,0.6,1.2C653.3,230.3,652.9,230.5,652.5,230.5z"/>
	</g>
	<g>
		<g>
			<path fill="#EF8CA4" d="M380.4,205c-0.2,0-0.4-0.1-0.6-0.2c-0.4-0.3-0.5-1-0.2-1.4c0.3-0.3,6.2-7.8,7.2-9.1
				c0.3-0.4,1-0.5,1.4-0.1c0.4,0.3,0.5,1,0.1,1.4c-1,1.2-7.1,9-7.2,9C381,204.9,380.7,205,380.4,205z"/>
		</g>
		<g>
			<path fill="#EF8CA4" d="M391,191.8c-0.2,0-0.4-0.1-0.6-0.2c-0.4-0.3-0.5-1-0.1-1.4l2.1-2.6c0.3-0.4,1-0.5,1.4-0.1s0.5,1,0.1,1.4
				l-2.1,2.6C391.6,191.7,391.3,191.8,391,191.8z"/>
		</g>
		<g>
			<path fill="#EF8CA4" d="M395.7,186.1c-0.2,0-0.4-0.1-0.6-0.2c-0.4-0.3-0.5-1-0.1-1.4l0.3-0.4c6.9-8.4,14-17.1,20.8-25.8
				c0.3-0.4,1-0.5,1.4-0.2c0.4,0.3,0.5,1,0.2,1.4c-6.8,8.7-14,17.4-20.9,25.8l-0.3,0.4C396.3,185.9,396,186.1,395.7,186.1z"/>
		</g>
	</g>
	<g>
		<g>
			<path fill="#EF8CA4" d="M394.8,198.5c-0.2,0-0.4-0.1-0.6-0.2c-0.4-0.3-0.5-1-0.1-1.4l2.8-3.5c0.3-0.4,1-0.5,1.4-0.1
				c0.4,0.3,0.5,1,0.1,1.4l-2.8,3.5C395.3,198.3,395.1,198.5,394.8,198.5z"/>
		</g>
		<g>
			<path fill="#EF8CA4" d="M401.5,190.2c-0.2,0-0.4-0.1-0.6-0.2c-0.4-0.3-0.5-1-0.1-1.4l18.7-23c0.3-0.4,1-0.5,1.4-0.1
				c0.4,0.3,0.5,1,0.1,1.4l-18.7,23C402,190.1,401.7,190.2,401.5,190.2z"/>
		</g>
	</g>
	<g>
		<g>
			<path fill="#EF8CA4" d="M407.9,194.9c-0.2,0-0.4-0.1-0.6-0.2c-0.4-0.3-0.5-1-0.1-1.4l4-5c0.3-0.4,1-0.5,1.4-0.1
				c0.4,0.3,0.5,1,0.1,1.4l-4,5C408.5,194.7,408.2,194.9,407.9,194.9z"/>
		</g>
		<g>
			<path fill="#EF8CA4" d="M415.4,185.6c-0.2,0-0.4-0.1-0.6-0.2c-0.4-0.3-0.5-1-0.1-1.4l9-11.1c0.3-0.4,1-0.5,1.4-0.1
				c0.4,0.3,0.5,1,0.1,1.4l-9,11.1C416,185.5,415.7,185.6,415.4,185.6z"/>
		</g>
	</g>
	<g>
		<g>
			<path fill="#EF8CA4" d="M405.5,209.8c-0.2,0-0.4-0.1-0.6-0.2c-0.4-0.3-0.5-1-0.2-1.4l3.4-4.4c1.5-1.9,2.6-3.3,3-3.8
				c0.3-0.4,1-0.5,1.4-0.1c0.4,0.3,0.5,1,0.1,1.4c-0.4,0.5-1.5,1.9-3,3.8l-3.4,4.4C406.1,209.7,405.8,209.8,405.5,209.8z"/>
		</g>
		<g>
			<path fill="#EF8CA4" d="M415.7,196.8c-0.2,0-0.4-0.1-0.6-0.2c-0.4-0.3-0.5-0.9-0.2-1.4c0.6-0.8,1.3-1.7,1.9-2.5
				c3.2-4.2,6.4-8.5,10-12.5c0.4-0.4,1-0.4,1.4-0.1s0.4,1,0.1,1.4c-3.6,3.9-6.8,8.2-9.9,12.3c-0.6,0.8-1.3,1.7-1.9,2.5
				C416.3,196.7,416,196.8,415.7,196.8z"/>
		</g>
	</g>
	<g>
		<g>
			<path fill="#EF8CA4" d="M421.2,202.6c-0.2,0-0.4-0.1-0.6-0.2c-0.4-0.3-0.5-1-0.2-1.4l10.4-13.1c0.3-0.4,1-0.5,1.4-0.2
				c0.4,0.3,0.5,1,0.2,1.4l-10.4,13.1C421.7,202.5,421.4,202.6,421.2,202.6z"/>
		</g>
	</g>
	<g>
		<path fill="#EF8CA4" d="M377.2,176.7c-2.9,0-5.8-0.5-8.6-1.6l-4.6,1.3c-0.5,0.2-1.1-0.1-1.2-0.7c-0.2-0.5,0.1-1.1,0.7-1.2l4.9-1.4
			c0.2-0.1,0.4-0.1,0.6,0c4.6,1.8,9.5,2,14.3,0.7l7.6-2.1c0.5-0.1,1.1,0.2,1.2,0.7s-0.2,1.1-0.7,1.2l-7.6,2.1
			C381.7,176.4,379.4,176.7,377.2,176.7z"/>
	</g>
	<g>
		<path fill="#EF8CA4" d="M338,189c-0.3,0-0.6-0.1-0.8-0.4c-0.3-0.4-0.2-1.1,0.2-1.4l7.1-5.1c0.4-0.3,1.1-0.2,1.4,0.2
			c0.3,0.4,0.2,1.1-0.2,1.4l-7.1,5.1C338.4,188.9,338.2,189,338,189z"/>
	</g>
	<g>
		<path fill="#EF8CA4" d="M349.3,180.9c-0.3,0-0.6-0.1-0.8-0.4c-0.3-0.4-0.2-1.1,0.2-1.4l14.3-10.5c0.4-0.3,1.1-0.2,1.4,0.2
			c0.3,0.4,0.2,1.1-0.2,1.4l-14.3,10.5C349.7,180.9,349.5,180.9,349.3,180.9z"/>
	</g>
	<g>
		<path fill="#EF8CA4" d="M325.2,207.9c-0.3,0-0.6-0.1-0.8-0.4c-0.3-0.4-0.2-1,0.2-1.4l37.6-28.7c0.4-0.3,1-0.2,1.4,0.2
			c0.3,0.4,0.2,1-0.2,1.4l-37.6,28.7C325.6,207.8,325.4,207.9,325.2,207.9z"/>
	</g>
	<g>
		<path fill="#EF8CA4" d="M338.5,181.1c-0.3,0-0.6-0.1-0.8-0.4c-0.3-0.4-0.2-1,0.2-1.4l7-5.3c0.4-0.3,1-0.2,1.4,0.2
			c0.3,0.4,0.2,1-0.2,1.4l-7,5.3C338.9,181.1,338.7,181.1,338.5,181.1z"/>
	</g>
	<g>
		<path fill="#EF8CA4" d="M280.8,175.5c-0.1,0-0.2,0-0.3,0c-5.3-1.5-9.6-2.1-14.5-2.2c-0.5,0-1-0.6-1-1.2c0-0.5,0.4-1.2,1-1.2
			c0,0,0,0,0,0c5.1,0,9.5,0.9,15,2.4c0.5,0.1,0.8,0.8,0.7,1.3C281.6,175.1,281.2,175.5,280.8,175.5z"/>
	</g>
	<g>
		<path fill="#EF8CA4" d="M298.4,182c-0.3,0-0.5-0.1-0.7-0.3c-0.4-0.4-0.3-1,0.1-1.4l4.4-4.1c0.4-0.4,1-0.3,1.4,0.1
			c0.4,0.4,0.3,1-0.1,1.4l-4.4,4.1C298.9,181.9,298.7,182,298.4,182z"/>
	</g>
	<g>
		<g>
			<path fill="#EF8CA4" d="M284.9,181.1c-0.2,0-0.5-0.1-0.7-0.3c-0.4-0.4-0.4-1,0-1.4l4.9-5c0.4-0.4,1-0.4,1.4,0
				c0.4,0.4,0.4,1,0,1.4l-4.9,5C285.4,181,285.2,181.1,284.9,181.1z"/>
		</g>
		<g>
			<path fill="#EF8CA4" d="M270.8,203.6c-0.2,0-0.5-0.1-0.7-0.3c-0.4-0.4-0.4-1,0-1.4l33.2-33.7c0.4-0.4,1-0.4,1.4,0s0.4,1,0,1.4
				l-33.2,33.7C271.3,203.5,271.1,203.6,270.8,203.6z"/>
		</g>
		<g>
			<path fill="#EF8CA4" d="M292.3,173.4c-0.2,0-0.5-0.1-0.7-0.3c-0.4-0.4-0.4-1,0-1.4l10.8-11.5c0.4-0.4,1-0.4,1.4,0
				c0.4,0.4,0.4,1,0,1.4L293,173.1C292.9,173.3,292.6,173.4,292.3,173.4z"/>
		</g>
	</g>
	<g>
		
			<path fill="none" stroke="#EF8CA4" stroke-width="1.9633" stroke-linecap="round" stroke-linejoin="round" stroke-miterlimit="10" d="
			M216.3,230.2"/>
	</g>
	<g>
		<path fill="#EF8CA4" d="M251.7,194.1c-0.2,0-0.4-0.1-0.6-0.2c-0.4-0.3-0.5-1-0.1-1.4l13.2-16.1c0.3-0.4,1-0.5,1.4-0.1
			c0.4,0.3,0.5,1,0.1,1.4l-13.2,16.1C252.2,193.9,251.9,194.1,251.7,194.1z"/>
	</g>
	<g>
		<path fill="#EF8CA4" d="M59.9,279.6c-0.4,0-0.7-0.2-0.9-0.6c-0.2-0.5,0-1.1,0.5-1.3l66.4-31.1l72.9-40.6l48.9-27l6.3-6.9
			c0.1-0.1,0.1-0.1,0.2-0.2l9.6-5.9c0.3-0.2,0.6-0.2,1,0c0.3,0.2,0.5,0.4,0.5,0.8l1,10.6l2.4,10.6c0.1,0.5-0.2,1.1-0.7,1.2
			c-0.5,0.1-1.1-0.2-1.2-0.7l-2.4-10.6c0,0,0-0.1,0-0.1l-0.8-9.1l-8.1,5l-6.3,6.9c-0.1,0.1-0.2,0.1-0.3,0.2l-49.1,27.1l-73,40.7
			l-66.5,31.1C60.2,279.6,60,279.6,59.9,279.6z"/>
	</g>
	<g>
		<path fill="#EF8CA4" d="M257.3,178.1c-0.2,0-0.5-0.1-0.7-0.2c-0.4-0.4-0.4-1-0.1-1.4l7-7.9c0.4-0.4,1-0.4,1.4-0.1
			c0.4,0.4,0.4,1,0.1,1.4l-7,7.9C257.8,177.9,257.5,178.1,257.3,178.1z"/>
	</g>
	<g>
		<path fill="#EF8CA4" d="M218.9,217.9c-0.2,0-0.5-0.1-0.7-0.3c-0.4-0.4-0.4-1,0-1.4l36.1-36.8c0.4-0.4,1-0.4,1.4,0
			c0.4,0.4,0.4,1,0,1.4l-36.1,36.8C219.4,217.8,219.2,217.9,218.9,217.9z"/>
	</g>
	<g>
		<path fill="#EF8CA4" d="M316.4,176C316.4,176,316.4,176,316.4,176l-12.2-0.7c-0.5,0-1-0.5-0.9-1.1s0.5-1,1-0.9l11.7,0.6l14.8-11.2
			c0.3-0.2,0.7-0.3,1-0.1l18.3,7.9c0.5,0.2,0.7,0.8,0.5,1.3s-0.8,0.7-1.3,0.5l-17.8-7.6L317,175.7C316.9,175.9,316.7,176,316.4,176z
			"/>
	</g>
	<g>
		<path fill="#ED737E" d="M435.9,311h-13c-0.8,0-1.5-0.7-1.5-1.5s0.7-1.5,1.5-1.5h13c0.8,0,1.5,0.7,1.5,1.5S436.7,311,435.9,311z"/>
	</g>
	<g>
		<path fill="#ED737E" d="M652.9,311h-205c-0.8,0-1.5-0.7-1.5-1.5s0.7-1.5,1.5-1.5h205c0.8,0,1.5,0.7,1.5,1.5S653.7,311,652.9,311z"
			/>
	</g>
	<g>
		<path fill="#ED737E" d="M390.9,311h-241c-0.8,0-1.5-0.7-1.5-1.5s0.7-1.5,1.5-1.5h241c0.8,0,1.5,0.7,1.5,1.5S391.7,311,390.9,311z"
			/>
	</g>
	<g>
		<g>
			<path fill="#ED737E" d="M285.7,249.1c-0.8,0-1.4-0.6-1.5-1.3c-0.1-0.8,0.5-1.5,1.3-1.6l10.5-0.9c0.8-0.1,1.5,0.5,1.6,1.3
				s-0.5,1.5-1.3,1.6l-10.5,0.9C285.8,249.1,285.8,249.1,285.7,249.1z"/>
		</g>
		<g>
			<g>
				<path fill="#ED737E" d="M281.6,283.5C281.6,283.5,281.6,283.5,281.6,283.5c-0.2,0-0.5,0-0.7,0c-3.8-0.2-7.3-1.8-9.8-4.7
					c-2.5-2.8-3.8-6.4-3.6-10.2c0.4-7.8,7-13.8,14.9-13.4c3.8,0.2,7.3,1.8,9.8,4.7c2.5,2.8,3.8,6.4,3.6,10.2
					C295.3,277.6,289.1,283.5,281.6,283.5z M281.6,258.1c-6,0-10.9,4.7-11.2,10.7c-0.2,3,0.9,5.9,2.9,8.1c2,2.2,4.8,3.5,7.8,3.7
					c6.2,0.3,11.5-4.5,11.8-10.6c0.2-3-0.9-5.9-2.9-8.1c-2-2.2-4.8-3.5-7.8-3.7C281.9,258.1,281.8,258.1,281.6,258.1z"/>
			</g>
			<g>
				<path fill="#ED737E" d="M330.9,286.1L330.9,286.1c-0.2,0-0.5,0-0.7,0c-3.8-0.2-7.3-1.8-9.8-4.7c-2.5-2.8-3.8-6.4-3.6-10.2
					c0.4-7.8,7-13.8,14.9-13.4c3.8,0.2,7.3,1.8,9.8,4.7c2.5,2.8,3.8,6.4,3.6,10.2C344.7,280.1,338.5,286.1,330.9,286.1z
					 M330.9,260.6c-6,0-10.9,4.7-11.2,10.7c-0.2,3,0.9,5.9,2.9,8.1c2,2.2,4.8,3.5,7.8,3.7c6.2,0.3,11.5-4.5,11.8-10.6
					c0.2-3-0.9-5.9-2.9-8.1c-2-2.2-4.8-3.5-7.8-3.7C331.3,260.6,331.1,260.6,330.9,260.6z"/>
			</g>
			<g>
				<path fill="#ED737E" d="M302.3,275.1c-0.1,0-0.1,0-0.2,0c-0.6-0.1-1-0.5-1.2-1l-5.2-15.6c-0.2-0.7,0.1-1.4,0.7-1.8l22.2-11.5
					c0.6-0.3,1.3-0.2,1.8,0.3c0.5,0.5,0.5,1.2,0.2,1.8l-17,27.1C303.3,274.8,302.8,275.1,302.3,275.1z M298.9,258.7l3.8,11.4
					l12.4-19.9L298.9,258.7z"/>
			</g>
			<g>
				<path fill="#ED737E" d="M302.3,275.1c-0.1,0-0.2,0-0.3,0l-20.7-4.2c-0.6-0.1-1-0.6-1.1-1.1c-0.1-0.6,0.1-1.2,0.6-1.5l15.5-11.6
					c0.7-0.5,1.6-0.4,2.1,0.3c0.5,0.7,0.4,1.6-0.3,2.1l-12.9,9.7l17.5,3.6c0.8,0.2,1.3,0.9,1.1,1.7
					C303.6,274.6,303,275.1,302.3,275.1z"/>
			</g>
			<g>
				<path fill="#ED737E" d="M297.4,260.6c-0.6,0-1.2-0.4-1.4-1l-2-5.6l-4.9-5.1c-0.6-0.6-0.6-1.5,0-2.1c0.6-0.6,1.5-0.6,2.1,0
					l5.2,5.3c0.1,0.2,0.3,0.3,0.3,0.5l2.1,5.9c0.3,0.8-0.1,1.6-0.9,1.9C297.8,260.6,297.6,260.6,297.4,260.6z"/>
			</g>
			<g>
				<path fill="#ED737E" d="M331,273.4c-0.6,0-1.1-0.3-1.3-0.9l-13.5-29.2c-0.2-0.4-0.2-0.9,0-1.3c0.2-0.4,0.6-0.7,1-0.8l6.4-1.2
					c0.8-0.2,1.6,0.4,1.7,1.2c0.2,0.8-0.4,1.6-1.2,1.7l-4.6,0.9l12.7,27.5c0.3,0.7,0,1.6-0.7,2C331.4,273.3,331.2,273.4,331,273.4z"
					/>
			</g>
		</g>
	</g>
	<path fill="#ED737E" d="M403.9,308h-33.4l-48.2-28.2c-0.3-0.2-0.6-0.2-0.9-0.2l-41.3,3.1l-19.4-12.2c-0.3-0.2-0.7-0.3-1-0.2
		l-250,37.4c-0.8,0.2-1.3,0.9-1.2,1.7c0.1,0.7,0.8,1.3,1.5,1.2l249.5-37.2l19.3,12.1c0.3,0.2,0.6,0.2,0.9,0.2l41.4-3.1l48.1,28.2
		c0.2,0.1,0.5,0.2,0.8,0.2h33.8c0.8,0,1.5-0.7,1.5-1.5S404.7,308,403.9,308z"/>
</g>
</svg>
